<svg xmlns="http://www.w3.org/2000/svg" width="136" height="48" viewBox="0 0 136 48">
    <g fill="none">
        <path fill="#A6A6A6" d="M124.82 0H10.805c-.416 0-.826 0-1.24.002-.348.003-.692.01-1.042.015-.761.01-1.52.078-2.271.205-.75.13-1.476.375-2.155.727-.677.355-1.296.816-1.834 1.366-.541.55-.992 1.184-1.335 1.88C.584 4.889.345 5.633.22 6.4.094 7.168.026 7.944.017 8.722.007 9.078.006 9.434 0 9.79v26.796c.006.36.007.709.017 1.069.01.778.077 1.554.203 2.32.125.77.364 1.514.709 2.209.343.693.794 1.325 1.335 1.871.536.553 1.155 1.014 1.834 1.366.679.353 1.405.6 2.155.732.75.126 1.51.194 2.27.205.351.008.695.012 1.042.012.415.002.825.002 1.241.002h114.013c.408 0 .822 0 1.229-.002.345 0 .7-.004 1.045-.012.76-.01 1.517-.078 2.266-.205.753-.133 1.482-.38 2.163-.732.678-.352 1.297-.813 1.833-1.366.54-.548.991-1.18 1.339-1.871.342-.696.579-1.44.702-2.208.126-.767.196-1.543.21-2.321.004-.36.004-.709.004-1.069.01-.42.01-.84.01-1.268V11.055c0-.424 0-.845-.01-1.265 0-.356 0-.712-.004-1.068-.014-.778-.084-1.554-.21-2.32-.123-.769-.36-1.513-.702-2.207-.7-1.395-1.809-2.53-3.172-3.246-.681-.351-1.41-.596-2.163-.727-.749-.128-1.507-.196-2.266-.205-.346-.006-.7-.013-1.045-.015C125.64 0 125.227 0 124.819 0z" transform="translate(0 .777)"/>
        <path fill="#000" d="M9.57 45.358c-.344 0-.681-.004-1.024-.012-.71-.01-1.418-.073-2.118-.19-.654-.115-1.287-.329-1.878-.635-.586-.303-1.12-.701-1.583-1.178-.47-.472-.86-1.019-1.157-1.62-.3-.604-.507-1.252-.615-1.92-.117-.719-.18-1.446-.189-2.174-.007-.245-.017-1.059-.017-1.059V9.79s.01-.802.017-1.037c.009-.728.071-1.453.188-2.17.108-.671.316-1.321.616-1.928.295-.6.684-1.147 1.15-1.62.466-.478 1.002-.878 1.59-1.186.59-.305 1.221-.517 1.873-.63.703-.118 1.414-.181 2.126-.19l1.022-.015h116.471l1.035.015c.706.009 1.41.072 2.106.189.659.114 1.297.328 1.894.635 1.176.62 2.133 1.6 2.737 2.805.295.602.5 1.247.607 1.912.117.723.183 1.454.197 2.188.003.328.003.68.003 1.032.009.434.009.848.009 1.265v24.263c0 .421 0 .832-.01 1.247 0 .377 0 .722-.003 1.078-.014.72-.078 1.438-.194 2.148-.106.674-.312 1.327-.612 1.936-.299.594-.687 1.137-1.151 1.607-.463.48-.999.88-1.586 1.185-.595.309-1.233.523-1.89.638-.701.117-1.41.18-2.119.189-.332.008-.68.012-1.017.012l-1.229.002-115.248-.002z" transform="translate(0 .777)"/>
        <g fill="#FFF">
            <path d="M16.9 14.26c.025-1.966 1.033-3.783 2.67-4.813-1.037-1.517-2.714-2.444-4.523-2.502C13.144 6.741 11.3 8.11 10.33 8.11c-.988 0-2.481-1.144-4.09-1.11-2.115.07-4.04 1.27-5.068 3.162-2.192 3.882-.557 9.587 1.542 12.725 1.05 1.536 2.278 3.252 3.885 3.192 1.572-.067 2.159-1.026 4.057-1.026 1.88 0 2.43 1.026 4.07.987 1.686-.028 2.749-1.543 3.763-3.094.754-1.095 1.335-2.305 1.72-3.586-2.003-.866-3.306-2.875-3.308-5.1zM13.804 4.882c.92-1.13 1.373-2.581 1.263-4.047-1.405.151-2.703.838-3.635 1.924-.92 1.072-1.387 2.473-1.296 3.897 1.424.015 2.776-.639 3.668-1.774z" transform="translate(0 .777) translate(11.171 9.274)"/>
            <g>
                <path d="M9.41 10.761H4.044l-1.289 3.891H.484L5.565.256h2.361l5.081 14.396h-2.31l-1.288-3.89zM4.6 8.966h4.253L6.756 2.65h-.058L4.6 8.966zM23.981 9.405c0 3.262-1.707 5.357-4.282 5.357-1.331.072-2.585-.642-3.229-1.836h-.048v5.199h-2.106V4.156h2.038v1.746h.039c.672-1.187 1.927-1.9 3.267-1.855 2.604 0 4.321 2.105 4.321 5.358zm-2.165 0c0-2.125-1.073-3.522-2.711-3.522-1.61 0-2.692 1.426-2.692 3.522 0 2.115 1.082 3.531 2.692 3.531 1.638 0 2.711-1.387 2.711-3.531zM35.274 9.405c0 3.262-1.706 5.357-4.282 5.357-1.33.072-2.585-.642-3.228-1.836h-.049v5.199H25.61V4.156h2.039v1.746h.038c.672-1.187 1.928-1.9 3.268-1.855 2.604 0 4.32 2.105 4.32 5.358zm-2.164 0c0-2.125-1.074-3.522-2.712-3.522-1.61 0-2.692 1.426-2.692 3.522 0 2.115 1.083 3.531 2.692 3.531 1.638 0 2.712-1.387 2.712-3.531zM42.739 10.641c.156 1.428 1.511 2.365 3.364 2.365 1.775 0 3.053-.937 3.053-2.224 0-1.118-.77-1.787-2.595-2.245l-1.824-.45c-2.584-.638-3.784-1.875-3.784-3.88 0-2.485 2.116-4.19 5.121-4.19 2.974 0 5.013 1.705 5.082 4.19h-2.127c-.127-1.438-1.288-2.305-2.985-2.305-1.696 0-2.857.878-2.857 2.155 0 1.018.741 1.616 2.555 2.075l1.55.39c2.888.698 4.088 1.884 4.088 3.99 0 2.694-2.097 4.38-5.433 4.38-3.121 0-5.228-1.647-5.364-4.25h2.156zM55.926 1.672v2.484h1.95v1.707h-1.95v5.786c0 .899.39 1.318 1.248 1.318.232-.004.463-.021.693-.05v1.696c-.386.074-.778.107-1.17.1-2.077 0-2.887-.799-2.887-2.834V5.863h-1.492V4.156h1.492V1.672h2.116zM59.007 9.405c0-3.302 1.901-5.378 4.866-5.378 2.975 0 4.868 2.076 4.868 5.378 0 3.312-1.883 5.378-4.868 5.378-2.983 0-4.866-2.066-4.866-5.378zm7.588 0c0-2.265-1.015-3.602-2.722-3.602-1.706 0-2.72 1.347-2.72 3.602 0 2.274 1.014 3.601 2.72 3.601 1.707 0 2.722-1.327 2.722-3.601zM70.478 4.156h2.008v1.787h.05c.28-1.15 1.31-1.942 2.467-1.896.243-.001.485.026.722.08v2.015c-.307-.096-.626-.14-.947-.13-.619-.026-1.218.227-1.64.691-.422.464-.624 1.094-.554 1.724v6.225h-2.106V4.156zM85.436 11.57c-.284 1.905-2.098 3.213-4.419 3.213-2.985 0-4.837-2.046-4.837-5.328 0-3.292 1.862-5.428 4.749-5.428 2.839 0 4.624 1.995 4.624 5.178v.738h-7.247v.13c-.068.781.196 1.555.724 2.124.528.569 1.27.878 2.036.849 1.022.098 1.986-.502 2.37-1.476h2zm-7.12-3.133h5.13c.038-.702-.212-1.389-.69-1.894-.478-.506-1.14-.785-1.827-.77-.693-.004-1.359.275-1.85.775-.49.5-.765 1.18-.763 1.889z" transform="translate(0 .777) translate(11.171 9.274) translate(27.362 11.428)"/>
            </g>
        </g>
        <g fill="#FFF">
            <path d="M3.203.847c.894-.065 1.77.283 2.386.949.617.665.909 1.579.796 2.489 0 2.21-1.168 3.48-3.182 3.48H.76V.847h2.443zm-1.392 5.94h1.275c.639.039 1.26-.219 1.694-.701.432-.483.63-1.14.536-1.787.086-.645-.113-1.296-.545-1.775-.432-.479-1.05-.735-1.685-.699H1.81v4.962zM7.571 5.152c-.087-.935.352-1.84 1.132-2.336.781-.496 1.77-.496 2.55 0 .78.495 1.22 1.4 1.132 2.336.089.937-.35 1.844-1.13 2.341-.782.497-1.772.497-2.553 0-.782-.497-1.22-1.404-1.13-2.34zm3.778 0c0-1.131-.497-1.793-1.37-1.793-.875 0-1.367.662-1.367 1.793 0 1.141.492 1.798 1.368 1.798.872 0 1.369-.662 1.369-1.798zM18.783 7.765L17.738 7.765 16.683 3.92 16.604 3.92 15.553 7.765 14.519 7.765 13.112 2.544 14.133 2.544 15.048 6.528 15.123 6.528 16.172 2.544 17.138 2.544 18.188 6.528 18.267 6.528 19.177 2.544 20.184 2.544zM21.367 2.544h.97v.83h.075c.262-.61.873-.984 1.523-.93.503-.039.996.158 1.34.536.343.378.5.895.426 1.405v3.38h-1.007V4.644c0-.839-.356-1.256-1.1-1.256-.342-.016-.673.12-.907.375-.235.254-.349.6-.313.948v3.054h-1.007v-5.22zM27.306.507L28.313.507 28.313 7.765 27.306 7.765zM29.713 5.152c-.087-.935.352-1.841 1.133-2.337.78-.495 1.768-.495 2.55 0 .78.496 1.219 1.402 1.131 2.337.09.937-.349 1.844-1.13 2.341-.782.497-1.771.497-2.553 0-.781-.497-1.22-1.404-1.13-2.34zm3.778 0c0-1.131-.497-1.793-1.37-1.793-.875 0-1.367.662-1.367 1.793 0 1.141.492 1.798 1.368 1.798.872 0 1.369-.662 1.369-1.798zM35.588 6.288c0-.94.684-1.48 1.898-1.558l1.382-.081v-.451c0-.551-.356-.863-1.045-.863-.562 0-.951.211-1.063.58h-.975c.103-.896.927-1.471 2.085-1.471 1.28 0 2 .651 2 1.754v3.567h-.969V7.03h-.08c-.329.536-.914.849-1.532.82-.433.046-.866-.098-1.19-.395-.324-.298-.51-.722-.511-1.168zm3.28-.446v-.436l-1.246.081c-.703.049-1.022.293-1.022.753 0 .47.399.744.947.744.324.033.648-.07.897-.284.249-.216.402-.525.424-.858zM41.195 5.152c0-1.65.829-2.694 2.118-2.694.651-.03 1.26.326 1.565.916h.075V.507h1.007v7.258h-.965V6.94h-.08c-.327.585-.944.936-1.602.91-1.298 0-2.118-1.044-2.118-2.698zm1.04 0c0 1.108.51 1.774 1.364 1.774.848 0 1.373-.676 1.373-1.77 0-1.087-.53-1.773-1.373-1.773-.848 0-1.364.671-1.364 1.77zM50.127 5.152c-.087-.935.351-1.84 1.132-2.336.781-.496 1.769-.496 2.55 0 .78.495 1.22 1.4 1.132 2.336.089.937-.35 1.844-1.13 2.341-.782.497-1.772.497-2.553 0-.782-.497-1.22-1.404-1.13-2.34zm3.778 0c0-1.131-.497-1.793-1.37-1.793-.875 0-1.367.662-1.367 1.793 0 1.141.492 1.798 1.368 1.798.872 0 1.369-.662 1.369-1.798zM56.292 2.544h.97v.83h.075c.262-.61.873-.984 1.523-.93.503-.039.996.158 1.34.536.343.378.5.895.426 1.405v3.38H59.62V4.644c0-.839-.356-1.256-1.101-1.256-.341-.016-.673.12-.907.375-.234.254-.348.6-.312.948v3.054h-1.007v-5.22zM66.317 1.245v1.323h1.106v.868h-1.106V6.12c0 .547.22.787.722.787.128 0 .256-.009.384-.024v.858c-.181.033-.364.05-.548.053-1.12 0-1.566-.403-1.566-1.41V3.436h-.81v-.868h.81V1.245h1.008zM68.799.507h.998v2.876h.08c.274-.616.896-.99 1.556-.935.5-.028.986.174 1.326.55.34.377.498.889.431 1.396v3.37h-1.008V4.65c0-.834-.38-1.257-1.091-1.257-.35-.029-.696.101-.944.357-.247.255-.372.609-.341.967v3.049h-1.007V.507zM79.063 6.355c-.283.985-1.214 1.621-2.212 1.51-.68.019-1.334-.27-1.788-.788-.454-.52-.662-1.216-.569-1.906-.09-.692.117-1.39.568-1.913.452-.523 1.103-.82 1.785-.814 1.42 0 2.277.992 2.277 2.631v.36H75.52v.058c-.032.387.097.77.356 1.055.259.285.623.444 1.003.44.493.06.972-.19 1.214-.633h.97zM75.52 4.673h2.578c.025-.354-.096-.703-.336-.96-.239-.258-.573-.4-.92-.392-.352-.005-.691.136-.94.39-.249.255-.387.602-.382.962z" transform="translate(0 .777) translate(39.667 9.274)"/>
        </g>
    </g>
</svg>
