<svg xmlns="http://www.w3.org/2000/svg" width="32" height="32" viewBox="0 0 32 32">
    <path fill="#6FCAD8" fill-rule="evenodd" d="M31.034 18.986c.53-.006.964.423.964.954.002 2.231-1.371 5.933-8.118 8.025-6.746 2.093-22.766 1.509-23.709.447-.257-.29-.19-1.048.26-1.341 3.671-2.396 8.258-4.378 13.336-5.757 5.41-1.47 11.215-2.253 17.267-2.328zM4.239 2.286L7.08 4.942c.72.674 1.67 1.048 2.656 1.048h7.495c1.763 0 3.468.628 4.811 1.77l8.022 6.827c.74.616.863 1.744.234 2.472-.61.705-1.676.795-2.397.195l-4.986-4.151c-.962-.801-2.174-1.24-3.426-1.24h-5.896c-.887 0-1.606.719-1.606 1.606 0 .886.72 1.605 1.606 1.605h5.66c.886 0 1.605.72 1.605 1.606 0 .887-.719 1.606-1.606 1.606H9.857c-1.802 0-3.467-.964-4.364-2.527l-.72-1.252c-.496-.865-1.112-1.654-1.83-2.345L0 9.33l4.24-7.044z"/>
</svg>
