<svg xmlns="http://www.w3.org/2000/svg" width="28" height="28" viewBox="0 0 28 28">
    <path fill="#FFFFFE" fill-rule="evenodd" d="M11.768 18.732c0-1.33-.005-2.661.005-3.992.002-.224-.062-.295-.288-.285-.418.016-.837-.002-1.255.007-.17.005-.232-.042-.23-.22.008-.83.008-1.661 0-2.492 0-.16.048-.212.21-.208.428.01.857-.012 1.284.009.247.012.298-.075.293-.303-.015-.632-.015-1.265 0-1.897.016-.772.225-1.493.688-2.12.586-.795 1.42-1.159 2.38-1.201.988-.044 1.978-.02 2.966-.03.138-.002.179.047.178.18-.004.84-.005 1.68.001 2.52.001.15-.048.195-.196.193-.475-.007-.95-.004-1.426-.003-.632.002-1.011.326-1.05.947-.033.499-.01 1-.02 1.5-.005.178.101.166.22.166.722-.001 1.445.007 2.168-.005.212-.004.282.045.257.266-.09.835-.169 1.67-.24 2.507-.017.19-.104.225-.275.222-.57-.008-1.14-.006-1.71-.002-.41.002-.37-.06-.37.355-.002 2.605-.006 5.21.005 7.815.002.275-.07.343-.343.338-.98-.018-1.959-.018-2.938 0-.276.006-.321-.087-.32-.331.011-1.312.006-2.624.006-3.936"/>
</svg>
