<svg xmlns="http://www.w3.org/2000/svg" width="526" height="430" viewBox="0 0 526 430">
    <g fill="none" fill-rule="evenodd">
        <path fill="#FF7271" d="M312 2c118.189 0 214 95.811 214 214s-95.811 214-214 214S98 334.189 98 216 193.811 2 312 2zm-.5 32C211.26 34 130 115.26 130 215.5S211.26 397 311.5 397 493 315.74 493 215.5 411.74 34 311.5 34z"/>
        <path fill="#6FCAD8" d="M148.55 0c-12.9 12.869-22.05 25.737-27.45 38.606-5.4 12.868-8.1 27.233-8.1 43.095V123h63V60.153h-28.8c2.1-12.868 10.2-26.784 24.3-41.748L148.55 0zm-113 0C22.65 12.869 13.5 25.737 8.1 38.606 2.7 51.474 0 65.839 0 81.7V123h63V60.153H34.2c2.1-12.868 10.2-26.784 24.3-41.748L35.55 0z"/>
    </g>
</svg>
