<svg xmlns="http://www.w3.org/2000/svg" width="344" height="340" viewBox="0 0 344 340">
    <g fill="none" fill-rule="evenodd">
        <path fill="#3C4042" d="M213 0c72.35 0 131 58.65 131 131s-58.65 131-131 131S82 203.35 82 131 140.65 0 213 0zm0 20c-61.304 0-111 49.696-111 111s49.696 111 111 111 111-49.696 111-111S274.304 20 213 20z"/>
        <path fill="#FFF" stroke="#B1B3B3" stroke-width="4" d="M0 340V59.436C0 49.806 7.806 42 17.436 42h153.128C180.194 42 188 49.806 188 59.436V340h0"/>
        <path fill="#6FCAD8" d="M2 84h143c4.418 0 8 3.582 8 8v41c0 4.418-3.582 8-8 8H2V84z"/>
        <path fill="#3ED590" d="M2 159h142c4.418 0 8 3.582 8 8v18c0 4.418-3.582 8-8 8H2v-34z"/>
        <path fill="#FF7271" d="M2 210h142c4.418 0 8 3.582 8 8v52c0 4.418-3.582 8-8 8H2v-68z"/>
    </g>
</svg>
