<?xml version="1.0" encoding="UTF-8"?>
<svg width="22px" height="22px" viewBox="0 0 22 22" version="1.1" xmlns="http://www.w3.org/2000/svg" xmlns:xlink="http://www.w3.org/1999/xlink">
    <!-- Generator: Sketch 64 (93537) - https://sketch.com -->
    <title>icon/massage-type/deep copy 10</title>
    <desc>Created with Sketch.</desc>
    <g id="Web" stroke="none" stroke-width="1" fill="none" fill-rule="evenodd">
        <g id="mobile-One-massage-specialist---phone" transform="translate(-20.000000, -831.000000)" fill="#FF7271">
            <g id="Group-12" transform="translate(0.000000, 357.000000)">
                <g id="icon/phone" transform="translate(20.000000, 474.000000)">
                    <path d="M4.76438819,0.102794176 C5.11425783,-0.072243356 5.53984898,0.047508608 5.74712377,0.379314301 L5.74712377,0.379314301 L8.45258609,4.5805995 C8.63994037,4.8802487 8.59558288,5.2695835 8.34562684,5.5194024 L8.34562684,5.5194024 L6.64641596,7.21797184 C6.48000256,7.38323362 6.39995475,7.6165239 6.42984243,7.84915084 C6.53680168,8.69046996 7.01091186,10.7903539 9.11065102,12.8902379 C11.2103902,14.9901219 13.3101293,15.4642648 14.1513904,15.5712314 C14.3840013,15.6011211 14.6172755,15.5210678 14.7825259,15.3546429 L14.7825259,15.3546429 L16.4809782,13.6553149 C16.7309683,13.4055879 17.1202586,13.3615439 17.4197164,13.5491068 L17.4197164,13.5491068 L21.6207119,16.2539971 C21.9511151,16.4616647 22.0700662,16.8861444 21.8956958,17.2352832 L21.8956958,17.2352832 L19.8501948,21.5788113 C19.7108792,21.8617575 19.4102759,22.0281824 19.0965493,21.996057 C16.933469,21.7684684 11.6196421,20.8262517 6.39684436,15.6027145 C1.17404662,10.3791772 0.231515586,5.06422524 0.00394270012,2.90213372 C-0.0281804947,2.58838543 0.138233016,2.28776138 0.421159658,2.1484362 L0.421159658,2.1484362 Z M11.0006438,3.79314301 C14.9788502,3.79753301 18.2027289,7.02163398 18.2071186,11.0001147 C18.2071186,11.4190938 17.8674924,11.7587433 17.4485423,11.7587433 C17.0295922,11.7587433 16.689966,11.4190938 16.689966,11.0001147 C16.6864126,7.8592453 14.1412967,5.31395383 11.0006438,5.31040022 C10.5816937,5.31040022 10.2420676,4.97075063 10.2420676,4.55177162 C10.2420676,4.13279261 10.5816937,3.79314301 11.0006438,3.79314301 Z M11.0006438,-7.10542736e-15 C17.0726476,0.00668953771 21.9933109,4.92769219 22,11.0001147 C22,11.2013156 21.9200788,11.3942757 21.7778182,11.5365462 C21.6355575,11.6788166 21.4426107,11.7587433 21.2414237,11.7587433 C20.8224736,11.7587433 20.4828474,11.4190938 20.4828474,11.0001147 C20.4769947,5.76530352 16.2350941,1.52311037 11.0006438,1.51725721 C10.5816937,1.51725721 10.2420676,1.17760761 10.2420676,0.758628603 C10.2420676,0.339649595 10.5816937,-7.10542736e-15 11.0006438,-7.10542736e-15 Z" id="Combined-Shape"></path>
                </g>
            </g>
        </g>
    </g>
</svg>