<svg xmlns="http://www.w3.org/2000/svg" width="32" height="32" viewBox="0 0 32 32">
    <path fill="#FF7271" fill-rule="evenodd" d="M22.103 21.714l1.548 3.82c1.31-.16 2.681.514 3.331 1.765.845 1.646.185 3.612-1.41 4.48-1.61.83-3.614.184-4.444-1.425-.773-1.46-.294-3.228.968-4.183l-1.525-3.87c.5-.149.986-.335 1.457-.558l.075-.029zM18.457 8.4c3.471 0 6.286 2.814 6.286 6.286 0 3.471-2.815 6.285-6.286 6.285-3.472 0-6.286-2.814-6.286-6.285 0-3.472 2.814-6.286 6.286-6.286zM.051 15.92c.225-1.797 1.892-3.083 3.689-2.858 1.243.134 2.23.988 2.658 2.12l4.09-.418c-.013.573.06 1.125.181 1.648l-4.09.417c-.265 1.787-1.912 2.996-3.67 2.78C1.111 19.383-.176 17.717.05 15.92zM26.937.02c1.8-.2 3.44 1.12 3.64 2.92.2 1.8-1.12 3.44-2.92 3.64-.56.08-1.12-.04-1.6-.24l-1.84 2.44c-.44-.36-.88-.72-1.36-1l1.84-2.44c-.36-.48-.6-1.04-.68-1.68-.2-1.8 1.12-3.44 2.92-3.64z"/>
</svg>
