<svg xmlns="http://www.w3.org/2000/svg" width="12" height="12" viewBox="0 0 12 12">
    <path fill="#6FCAD8" fill-rule="evenodd" d="M6 9.9l-3.087 1.413c-.215.098-.47.004-.568-.211-.033-.072-.045-.15-.036-.228l.39-3.373L.4 5.001c-.16-.173-.15-.445.025-.605.058-.053.129-.089.205-.104L3.96 3.62 5.627.662C5.743.456 6.004.383 6.21.5c.069.039.125.095.163.163L8.04 3.62l3.329.672c.232.046.382.272.335.505-.016.076-.052.147-.105.205l-2.297 2.5.39 3.372c.026.235-.142.448-.377.475-.078.009-.157-.003-.228-.036L6 9.9z"/>
</svg>
