<svg xmlns="http://www.w3.org/2000/svg" width="32" height="32" viewBox="0 0 32 32">
    <path fill="#6FCAD8" fill-rule="evenodd" d="M15.738 3.528c.148-.132.376-.132.525 0C17.526 4.65 22.925 9.808 22.925 16c0 6.193-5.399 11.35-6.662 12.472-.15.132-.377.132-.525 0C14.474 27.35 9.075 22.192 9.075 16c0-6.193 5.399-11.35 6.663-12.472zM.815 8.17l.075.002c.95.108 3.696.503 6.595 1.696l-.047.108C6.573 12.001 6.134 14.028 6.134 16c0 1.972.439 3.999 1.304 6.024.663 1.551 1.578 3.107 2.72 4.623l.008.01c.228.303-.09.707-.452.571-2.504-.938-5.219-2.454-7.05-4.89-3.77-5.014-2.54-12.245-2.2-13.869.04-.191.225-.32.426-.297zm30.295.002c.201-.023.386.106.426.297.34 1.624 1.57 8.855-2.2 13.869-1.831 2.436-4.546 3.953-7.05 4.89-.361.136-.68-.268-.452-.57l.008-.011c1.142-1.516 2.057-3.072 2.72-4.623.865-2.025 1.304-4.052 1.304-6.024 0-1.972-.439-3.999-1.304-6.024l-.047-.108c2.899-1.193 5.645-1.588 6.595-1.696z"/>
</svg>
