<svg xmlns="http://www.w3.org/2000/svg" width="32" height="32" viewBox="0 0 32 32">
    <path fill="#6FCAD8" fill-rule="evenodd" d="M20.487 21.277h-3.26v3.26c0 .678-.55 1.227-1.227 1.227-.678 0-1.227-.549-1.227-1.227v-3.26h-3.26c-.678 0-1.227-.55-1.227-1.227 0-.678.55-1.227 1.227-1.227h3.26v-3.26c0-.678.55-1.227 1.227-1.227.678 0 1.227.55 1.227 1.227v3.26h3.26c.678 0 1.227.55 1.227 1.227 0 .678-.549 1.227-1.227 1.227M16.266.11c-.148-.147-.384-.147-.532 0C13.968 1.868 4 12.132 4 19.843 4 26.557 9.373 32 16 32s12-5.443 12-12.157C28 12.133 18.032 1.868 16.266.11"/>
</svg>
